<svg xmlns="http://www.w3.org/2000/svg" width="229.227" height="45.313" viewBox="0 0 229.227 45.313"><path d="M104.021 6.017c1.656-.659 3.719.56 3.809 2.362.254 1.815-1.638 3.468-3.398 2.995-1.657-.274-2.725-2.235-2.045-3.775.296-.724.901-1.309 1.634-1.583" fill="#434343"/><path d="M7.346 16.547c3.574-3.875 10.089-4.519 14.357-1.433.619.44 1.174.961 1.705 1.499-.978.994-1.9 2.047-2.924 2.995-1.041-.911-2.217-1.756-3.616-1.984-2.002-.404-4.227.059-5.716 1.51-2.583 2.401-2.528 7.004.116 9.342 1.908 1.744 4.878 1.968 7.166.883.768-.359 1.389-.946 2.048-1.461 1.027.948 1.949 1.997 2.927 2.994-1.556 1.657-3.603 2.87-5.858 3.255-3.31.604-6.915-.237-9.467-2.474-2.211-1.93-3.623-4.837-3.442-7.8-.2-2.691.847-5.39 2.704-7.326" fill="#434343"/><path d="M44.403 21.669c3.571-.034 7.146-.003 10.721-.017-.058-1.673-1.189-3.166-2.7-3.832-3.055-1.484-7.542.278-8.021 3.849m-2.467-4.841c2.959-3.605 8.474-4.533 12.623-2.596 2.701 1.282 4.62 3.941 5.17 6.854.268 1.289.224 2.611.154 3.916-5.172-.04-10.344 0-15.517-.021-.042 1.848 1.049 3.654 2.709 4.47 2.775 1.393 6.53.911 8.597-1.509 1.049.836 1.973 1.825 2.913 2.781-1.689 1.736-3.868 3.069-6.305 3.383-3.171.474-6.64-.099-9.175-2.162-2.203-1.757-3.369-4.561-3.487-7.335-.161-2.749.518-5.641 2.317-7.781" fill="#434343"/><path d="M135.85 21.669c3.572-.034 7.147-.003 10.72-.017-.055-1.679-1.199-3.182-2.72-3.841-3.051-1.466-7.523.295-8 3.859m-.567-6.585c3.335-2.252 8.022-2.5 11.502-.427 2.629 1.573 4.292 4.501 4.552 7.528v2.81c-5.186-.022-10.367-.003-15.548-.012.039 1.487.672 2.988 1.868 3.907 2.795 2.095 7.177 1.693 9.493-.955 1.01.875 1.945 1.828 2.889 2.773-.803.778-1.639 1.531-2.612 2.093-2.278 1.373-5.058 1.668-7.654 1.328-2.677-.353-5.294-1.695-6.859-3.937-1.719-2.4-2.143-5.519-1.711-8.388.387-2.667 1.841-5.193 4.08-6.721" fill="#434343"/><path d="M34.039 13.916c1.351-.549 2.844-.566 4.274-.429-.024 1.543-.01 3.088-.01 4.63-1.793-.327-3.822-.303-5.357.798-1.358.938-1.999 2.626-2.013 4.235-.032 3.544-.003 7.093-.013 10.64h-4.718c-.012-6.665.025-13.333-.02-19.997 1.583.009 3.166.004 4.751.004-.023.985 0 1.972-.032 2.957.67-1.279 1.767-2.346 3.138-2.839" fill="#434343"/><path d="M71.112 17.974c-.949.293-1.812.842-2.476 1.58-2.34 2.512-2.076 7.023.695 9.121 2.471 1.974 6.456 1.495 8.399-1 2.104-2.554 1.682-6.815-1.035-8.773-1.569-1.183-3.717-1.527-5.583-.928m-6.451-.967c1.998-2.539 5.32-3.899 8.526-3.597 2.204.144 4.634 1.123 5.545 3.289-.03-.966-.017-1.933-.033-2.901 1.596-.004 3.198.018 4.794-.012-.066 6.784-.009 13.166-.028 20.006h-4.754c.001-.977-.029-1.955.043-2.926-.774 1.822-2.682 2.865-4.561 3.186-3.072.574-6.399-.334-8.658-2.517-3.919-3.686-4.269-10.387-.875-14.527" fill="#434343"/><path d="M102.636 13.793c1.601.007 3.202.012 4.8-.002-.051 6.665-.005 13.333-.02 20h-4.761c-.011-6.665.026-13.332-.019-19.997" fill="#434343"/><path d="M109.74 13.74c1.661.125 3.332.03 4.996.055 1.81 4.533 3.738 9.017 5.628 13.522 1.92-4.496 3.766-9.024 5.636-13.538 1.647.038 3.292.02 4.94.009-2.902 6.653-5.704 13.353-8.607 20.005l-4.003-.006c-2.835-6.693-5.707-13.373-8.589-20.048" fill="#434343"/><path d="M95.506 13.797c-.059-2.554-.016-5.109-.024-7.666-.794.015-1.586.017-2.379.017h-.025c-.794 0-1.587-.002-2.379-.017-.01 2.557.033 5.112-.024 7.666-.13-.001-1.845.002-2.572-.008 0 .003-1.149.006-1.724-.015.029 1.451.006 2.9.015 4.349.996-.005 4.317-.002 4.317-.002s-.001 10.444-.008 15.67h4.776999999999999c-.008-5.226-.012-15.67-.012-15.67l4.334.002v-4.349l-4.296.024" fill="#434343"/><path d="M204.426 24.213c-.21-.291.422-.813.383-1.117-.022-.286-.028-.608-.022-.941.01-.648.057-1.335.092-1.871.197-3.578.209-7.216.737-10.685.209-1.504.495-2.974.71-4.476.088-.613-.046-2.362-1.04-2.264-.254.024-.418.311-.637.485-.309.244-.68.521-1.101.429-.205-.046-.865-.475-.781-.728.083-.195.217-.355.325-.53-.939-.136-1.656.405-2.002 1.128-.635 1.284-.597 2.897-.69 4.411-.296 2.852-.376 5.772-.408 8.704-.032 4.044.063 8.124.216 12.216.026.533-.012 1.059.144 1.612.24.886.551 1.853 1.289 2.577.712.663 1.649.801 2.431.77.14-.124.188-.327.3-.476l.311.37c.431.047.884-.11.93-.549.125-.918-.304-1.933-.44-2.896-.179-1.325-.252-1.927-.173-3.2.099-.577-.571-1.508-.626-2.133" fill="#c20000"/><path d="M164.491 23.43c-1.486-.552-3.178-.677-4.436-1.735-.598-.456-1.032-1.345-.574-2.042.512-1.211 1.434-2.192 2.45-3.004.661-.506 1.193-.791 1.815-1.073l.405-.138c.176-.057.376-.15.543-.276h.001c.234-.178.398-.421.309-.729-.057-.367-.442-.943.041-1.168.186-.125.259.196.377.272.396-.586.403-1.573-.207-2.009-1.179-.459-2.465-.117-3.606.286-.134.052-.291.154-.457.274l-.107.02c-1.136.555-2.199 1.272-3.203 2.034-.944.733-1.928 1.449-2.668 2.397-.558.707-1.024 1.556-.979 2.481-.064.73.264 1.399.524 2.055.328.749.795 1.447 1.418 1.977.915.803 2.063 1.256 3.173 1.712.616.26 1.258.466 1.902.646.421.131.893.251 1.141.65-.097.243-.199.489-.384.679-.729.813-1.596 1.484-2.437 2.174-1.467 1.243-3.053 2.336-4.504 3.593-.272.283-.711.575-.632 1.018.23.131.5.024.746.04l-1.55 1.154c-.029.217.202.264.343.359.487-.414 2.677-.046 2.422.222.528.368 1.268.418 1.842.124.948-.453 1.808-1.069 2.623-1.723 1.785-1.399 3.709-2.638 5.325-4.237.772-.789 1.513-1.676 1.823-2.755.197-.668.099-1.477-.453-1.955-.842-.753-1.994-.946-3.027-1.323" fill="#c20000"/><path d="M186.695 9.704c-.86-.099-1.692-.488-2.558-.473-1.819.016-3.646.54-5.464.565-.325-.002-.65.047-.975-.041-.153-.352-.167-.732-.274-1.095-.097-.318-.278-5.074-.605-5.147-.555-.177-1.039.195-1.589.136-.312-.163-.374-.683-.795-.654-.396.079-.891.224-.992.665-.128.631-.055 5.794-.177 6.425-.01.141-.146.222-.283.205-.243.011-1.352.313-1.65.381-1.364.284-1.611.235-3.007.326-.377.019-.833-.129-1.134.178-.292.435.344.936.422 1.387-.215.043-.438.058-.657.05-.035.179-.01.392-.146.533-.183.212-.407.394-.523.668-.09.379.216.512.504.646.734.307 1.554.357 2.335.235.733-.11 3.833-1.078 4.441-1.132-.009 1.267.089 2.876.152 4.145.078 4.157-.343 9.393-.339 13.542.053.572-.452.988-.378 1.556.267.398 1.583.714 1.68.763.436.145.973.169 1.284-.166l.562-.004c.642-.554.749-1.473.813-2.304.128-2.099.243-5.338.368-7.438.046-.524.026-1.056.026-1.583-.018-1.816-.012-3.628-.012-5.444-.007-1.292-.209-2.611.011-3.879l.147-.197c2.485-.03 4.981-.632 7.432-.913.351-.015.346-.411.541-.605.633-.16 1.352.134 1.97-.118.273-.042.473-.252.473-.536-.402-.488-1.028-.632-1.604-.675" fill="#c20000"/><path d="M215.032 20.638c.262-.381.598-1.208.915-1.54 1.121-1.142 2.12-1.913 3.414-2.872.566-.339 1.081-.816 1.746-.957.164.38.117.796-.15 1.036-.44.385-.599 1.123-.993 1.541-.733.806-1.427 1.583-2.25 2.294-.9.741-2.132 1.334-3.328 1.461l-.147-.032c.129-.418.571-.581.792-.932m.564 4.901c2.963-1.683 5.992-3.381 8.184-6.012 1.89-2.271 3.033-7.116-1.1-7.643-1.062-.103-2.138-.107-3.196.027-.68.078-1.013.287-1.943.58-.494.158-.91.46-1.361.69-2.079 1.312-3.58 3.027-4.923 5.093-.807 1.269-1.543 3.896-1.719 5.394-.675-.091-.545-.123-1.236-.094-.283.002-.582.04-.809.228l-.044.22c.33.278.558.442.707.521.051.315-.848.586-.855.961-.046.395-.606.287-.545.67.035.21.541.199.688.162l-.178.068c-.14.032-.309-.019-.438.055-.033.019-.456.299-.43.322.115.113.265.192.43.205l1.714.147.255.066c-.029.05-.042.103-.015.164.352.8.449 2.349.808 3.147.355.523.862.922 1.279 1.4.281.348.393.527.777.735 1.018.514 2.053 1.091 3.217 1.162 1.686.072 3.373-.339 4.878-1.097l.567-.282.004.04c.409-.317.887-.358 1.272-.706l.024-.017c.287-.166.567-.339.834-.541l.422-.406.045-.032c.335-.244.621-.573.901-.91.218-.226.44-.452.65-.686l.013-.052c.138-.139.276-.275.431-.386l1.03-.673c.208-.147.344-.428.244-.678-.099-.25-.096-.541-.265-.76-.154-.245-.481-.407-.765-.295-.298.093-.473.374-.646.615-.363.088-.777-.05-.971-.376.045-.284.446-.305.54-.575l-.104-.113c-.204-.03-.396.053-.564.155-1.506.818-1.062.722-2.344 1.854l-.921.554c-.605.407-1.286.682-1.92 1.031-.719.394-1.955.815-2.8.773-.404-.052-.404-.052-1.282-.451-.385-.309-.637-.757-.675-1.305-.032-.476.197-.476.197-1.303 0-.825 1.223-1.243 1.937-1.647" fill="#c20000"/><path d="M197.654 14.609c-.081-.537-.315-1.162-.904-1.306-.015.263.057.538-.061.785-.172.436-1.001.567-.979.377-.167-.354-.585-.477-.923-.603-.412-.12-.834-.327-1.272-.217-.385.428-.633 1.962-.868 2.895-.608 2.429-1.474 6.564-2.187 8.952-.374 1.262-.119 4.282-2.384 2.579-1.25-.94-1.841-4.073-2.007-5.42-.252-2.022-.578-4.059-1.095-6.036-.149-.547-.173-.935-.776-1.183-.378-.112-.795-.113-1.077.096-.015.116-1.327.322-1.364.259-.032-.541.716-.265.861-.689-.602-.024-1.796.237-2.137.665-.857 1.044-.181 2.352-.09 3.609.099 1.37 2.14 10.743 4.107 12.047.813.541 1.653 1.113 3.167 1.314.286.039.448-.255.658-.112.312.218-.11.966-.207 1.229-.234.638-.539 1.684-.93 3.281-.13.768-.418 1.734-.008 2.568.313.201.163 1.679-.075 1.442-.253.668-.052 1.459.496 2.017.504.497 1.104.987 1.784 1.137.436.024.317-.485.326-.773.156-.072.326-.117.468-.207.138-.205.191-.462.29-.692l.338-.112.309.344.296-.01c.106-.496-.242-1.04-.19-1.551.234-2.883 6.437-24.348 6.387-24.653l.043.008c.112-.675.103-1.371.006-2.044" fill="#c20000"/></svg>